<svg width="550" height="407" viewBox="0 0 550 407" fill="none" xmlns="http://www.w3.org/2000/svg">
<g clip-path="url(#clip0_747_584)">
<path opacity="0.1" d="M182.852 406.771C209.637 406.771 231.35 403.128 231.35 398.634C231.35 394.14 209.637 390.496 182.852 390.496C156.068 390.496 134.354 394.14 134.354 398.634C134.354 403.128 156.068 406.771 182.852 406.771Z" fill="white"/>
<path opacity="0.1" d="M446.479 407C479.902 407 506.997 403.357 506.997 398.863C506.997 394.368 479.902 390.725 446.479 390.725C413.056 390.725 385.962 394.368 385.962 398.863C385.962 403.357 413.056 407 446.479 407Z" fill="white"/>
<path opacity="0.1" d="M6.88844 175.853H57.402V247.78H10.5865C10.4621 248.519 10.3426 249.262 10.2132 250.006H57.402V308.014C57.3174 307.988 57.2427 307.956 57.1631 307.925C55.8292 307.374 54.5053 306.792 53.1813 306.168L52.3352 305.767C51.008 305.112 49.6807 304.419 48.3535 303.688C47.8906 303.433 47.4277 303.168 46.9698 302.897C39.6015 298.585 32.9077 293.121 27.1207 286.695C26.9515 286.523 26.7922 286.341 26.623 286.175C25.8167 285.26 25.0253 284.334 24.2589 283.388L23.4127 282.348C22.5069 281.188 21.6309 279.998 20.7798 278.791C20.6554 278.615 20.5359 278.438 20.4065 278.271C16.9451 273.258 14.071 267.829 11.8457 262.1C11.776 261.929 11.7163 261.742 11.6516 261.58C10.9681 259.743 10.3625 257.889 9.83494 256.017C9.60599 255.232 9.38699 254.457 9.19786 253.641C9.12818 253.401 9.06845 253.167 9.0137 252.933C6.18665 241.406 5.85318 229.431 5.85318 217.539C5.85318 216.151 5.85318 214.757 5.85318 213.379C5.85318 208.57 5.90793 203.729 5.98756 198.893C5.98756 197.64 6.03734 196.392 6.06222 195.134C6.1319 191.941 6.23145 188.748 6.36085 185.556C6.39072 184.667 6.43053 183.783 6.47533 182.899C6.47533 182.389 6.50022 181.88 6.54999 181.37C6.66944 179.519 6.76898 177.684 6.88844 175.853Z" fill="white"/>
<path opacity="0.1" d="M57.402 95.7678H29.6939C34.198 88.4028 39.1193 81.3256 44.4314 74.5739C48.5476 69.291 52.8927 64.1433 57.402 59.1828V95.7678Z" fill="white"/>
<path opacity="0.1" d="M57.402 97.9932V173.628H7.04771C7.04771 173.409 7.08255 173.186 7.09749 172.967C7.14228 172.369 7.18707 171.772 7.23685 171.179C7.2916 170.482 7.35132 169.78 7.41603 169.099C7.48073 168.418 7.55041 167.586 7.62507 166.832C7.69973 166.078 7.76941 165.314 7.85402 164.56C7.93863 163.806 8.01329 163.052 8.10288 162.303C8.19247 161.554 8.27211 160.795 8.36667 160.046C8.44133 159.422 8.52096 158.804 8.6006 158.18C8.71507 157.301 8.83453 156.417 8.96393 155.543C8.96393 155.413 8.99877 155.278 9.01868 155.153C9.92712 148.759 11.1649 142.42 12.7267 136.164C14.3615 129.602 16.4491 123.172 18.9731 116.925C21.6556 110.39 24.7965 104.071 28.37 98.0192L57.402 97.9932Z" fill="white"/>
<path opacity="0.1" d="M69.4617 175.848V247.78H177.352V175.848H69.4617ZM69.4617 250.001V311.773C70.0789 311.908 70.6911 312.038 71.2983 312.147C72.1245 312.314 72.9458 312.465 73.7869 312.595C73.9462 312.621 74.1104 312.647 74.2846 312.662C74.6131 312.719 74.9516 312.766 75.2801 312.813C76.1113 312.932 76.9375 313.031 77.7687 313.109C78.1619 313.151 78.56 313.187 78.9582 313.218L79.9188 313.296C80.4414 313.338 80.959 313.369 81.4717 313.385C81.7902 313.385 82.1088 313.416 82.4373 313.426C82.6861 313.426 82.935 313.426 83.1938 313.426C83.4526 313.426 83.8209 313.426 84.1345 313.426C84.5625 313.426 84.9906 313.426 85.4136 313.426H85.986C86.4141 313.426 86.8421 313.426 87.2652 313.385H87.295C87.5887 313.385 87.8873 313.385 88.1859 313.343C88.2688 313.348 88.3519 313.348 88.4348 313.343C88.6837 313.343 88.9325 313.343 89.1714 313.307H89.3456L91.013 313.172C91.5605 313.12 92.1129 313.052 92.6704 312.99L93.8052 312.849C98.4219 312.173 102.987 311.159 107.468 309.813C117.531 306.88 127.376 302.778 137.435 299.772C150.441 295.898 164.81 293.995 177.377 298.732V250.001H69.4617ZM177.352 95.7678V0.00520758C165.54 -0.128489 153.76 1.31484 142.298 4.30015C114.978 11.4705 90.4655 27.0228 69.4617 46.8856V95.7626H74.8769V97.9828H69.4617V173.628H177.352V97.988H97.1101V95.7678H177.352ZM315.932 63.4205C309.173 63.171 302.454 60.9351 296.377 57.4825C284.755 50.8789 275.473 40.6823 265.1 32.0769C243.549 14.1535 216.822 3.3382 189.402 0.655168V95.7678H343.421L343.805 95.3466L315.932 63.4205ZM329.963 60.8207L344.84 77.8757V56.349C339.858 56.9937 335.493 58.5276 329.983 60.7999L329.963 60.8207ZM344.84 327.112V250.001H313.14C313.056 249.673 312.971 249.34 312.871 249.008C312.966 249.34 313.046 249.673 313.135 250.001H189.422V305.767C190.597 306.677 191.756 307.634 192.906 308.606C194.145 309.646 195.37 310.743 196.599 311.82L197.839 312.891C198.431 313.411 199.028 313.931 199.63 314.42C200.825 315.432 202.031 316.43 203.249 317.415C203.851 317.935 204.468 318.403 205.08 318.891C214.799 326.654 225.052 333.66 235.755 339.851C238.154 341.238 240.574 342.591 243.017 343.912C244.644 344.781 246.282 345.644 247.924 346.481C250.393 347.739 252.881 348.952 255.39 350.121C278.517 360.966 302.972 368.409 328.057 372.235C333.628 373.095 339.221 373.771 344.835 374.263V327.107H345.333L344.84 327.112ZM189.422 97.988V173.628H344.86V97.988H189.422ZM189.422 175.848V247.78H344.86V175.848H189.422ZM356.925 56.2554V80.2675L375.913 58.5016C369.621 57.4409 363.292 56.6835 356.925 56.2294V56.2554ZM356.925 175.874V247.78H508.107V175.848L356.925 175.874ZM507.554 332.821L508.087 250.001H356.925V375.09C366.663 375.517 376.415 375.395 386.141 374.726V374.726H386.31C390.955 374.42 395.579 373.977 400.181 373.394H400.286C424.839 370.409 448.847 363.717 471.559 353.526L507.554 332.821ZM537.258 187.693C536.691 186.294 536.099 184.906 535.496 183.533C534.372 180.933 533.182 178.406 531.958 175.879H520.162V247.78H549.985C549.97 227.419 545.038 206.62 537.273 187.667L537.258 187.693ZM520.162 250.027V321.262C528.563 312.849 535.661 303.225 540.772 292.222C546.919 278.973 549.731 264.627 549.96 250.016L520.162 250.027ZM520.162 154.914V173.633H530.853C527.619 167.189 524.055 160.932 520.177 154.888L520.162 154.914ZM417.631 70.3673C416.845 70.0553 416.059 69.7382 415.267 69.4314C406.921 66.2114 398.392 63.5336 389.729 61.4135L360.672 94.7278L360.115 95.3466L360.488 95.773H463.904C449.501 85.4154 433.974 76.8786 417.646 70.3413L417.631 70.3673ZM466.936 98.014H359.045L356.925 100.042V173.628H375.509H375.539H508.127V137.984C496.133 122.83 482.29 109.383 466.95 97.988L466.936 98.014Z" fill="white"/>
<path opacity="0.1" d="M57.402 136.143V173.628H7.04771C7.04771 173.409 7.08255 173.186 7.09749 172.967C7.14228 172.37 7.18707 171.772 7.23685 171.179C7.2916 170.482 7.35132 169.78 7.41603 169.099C7.48073 168.418 7.55041 167.586 7.62507 166.832C7.69973 166.078 7.76941 165.314 7.85402 164.56C7.93863 163.806 8.01329 163.052 8.10288 162.303C8.19247 161.554 8.27211 160.795 8.36667 160.046C8.44133 159.422 8.52096 158.804 8.6006 158.18C8.71507 157.301 8.83453 156.417 8.96393 155.543C8.96393 155.413 8.99877 155.278 9.01868 155.153C9.92712 148.759 11.1649 142.42 12.7267 136.164L57.402 136.143Z" fill="white"/>
<path opacity="0.1" d="M6.88844 175.853H57.402V247.78H10.5865C10.4621 248.519 10.3426 249.262 10.2132 250.006H57.402V308.014C57.3174 307.988 57.2427 307.956 57.1631 307.925C55.8292 307.374 54.5053 306.792 53.1813 306.168L52.3352 305.767C51.008 305.112 49.6807 304.419 48.3535 303.688C47.8906 303.433 47.4277 303.168 46.9698 302.897C39.6015 298.585 32.9077 293.121 27.1207 286.695C26.9515 286.523 26.7922 286.341 26.623 286.175C25.8167 285.26 25.0253 284.334 24.2589 283.388L23.4127 282.348C22.5069 281.188 21.6309 279.998 20.7798 278.791C20.6554 278.615 20.5359 278.438 20.4065 278.271C16.9451 273.258 14.071 267.829 11.8457 262.1C11.776 261.929 11.7163 261.742 11.6516 261.58C10.9681 259.743 10.3625 257.889 9.83494 256.017C9.60599 255.232 9.38699 254.457 9.19786 253.641C9.12818 253.401 9.06845 253.167 9.0137 252.933C6.18665 241.406 5.85318 229.431 5.85318 217.539C5.85318 216.151 5.85318 214.757 5.85318 213.379C5.85318 208.57 5.90793 203.729 5.98756 198.893C5.98756 197.64 6.03734 196.392 6.06222 195.134C6.1319 191.941 6.23145 188.748 6.36085 185.556C6.39072 184.667 6.43053 183.783 6.47533 182.899C6.47533 182.389 6.50022 181.88 6.54999 181.37C6.66944 179.519 6.76898 177.684 6.88844 175.853Z" fill="white"/>
<path opacity="0.1" d="M107.443 108.819V173.628H69.4617V108.819H74.8769V86.8763H97.1051V108.819H107.443Z" fill="white"/>
<path opacity="0.1" d="M107.443 175.848H69.4667V247.775H107.443V175.848Z" fill="white"/>
<path opacity="0.1" d="M69.4617 250.006H107.443V309.802C102.962 311.147 98.397 312.16 93.7803 312.834L92.6455 312.979C92.0881 313.047 91.5356 313.104 90.9881 313.161C90.4406 313.219 89.8732 313.26 89.3207 313.296H89.1465C88.9076 313.296 88.6488 313.328 88.4149 313.333H88.1611C87.8624 313.333 87.5638 313.364 87.2652 313.375C86.8421 313.401 86.419 313.406 85.986 313.411C85.8019 313.411 85.6277 313.411 85.4435 313.411C85.0155 313.411 84.5924 313.411 84.1644 313.411H83.2237C82.9698 313.411 82.726 313.411 82.4622 313.411L81.5016 313.375C81.0038 313.375 80.4663 313.317 79.9487 313.281L78.9931 313.208L77.8035 313.094C76.9673 313.016 76.1361 312.917 75.3149 312.797L74.3195 312.652L73.8218 312.579C72.9906 312.444 72.1693 312.298 71.3332 312.132C70.721 312.023 70.1137 311.887 69.4966 311.757L69.4617 250.006Z" fill="white"/>
<path opacity="0.1" d="M344.86 101.165H313.543V173.623H344.86V101.165Z" fill="white"/>
<path opacity="0.1" d="M344.865 175.848V247.78H189.422V216.754H272.218V235.057H313.543V175.848H344.865Z" fill="white"/>
<path opacity="0.1" d="M345.358 327.128H344.86V374.315C339.252 373.819 333.661 373.145 328.087 372.292C302.99 368.454 278.524 360.995 255.39 350.131C248.71 346.99 242.167 343.562 235.76 339.846C225.057 333.652 214.803 326.646 205.08 318.886C202.638 316.931 200.228 314.931 197.849 312.886C196.201 311.466 194.564 310.01 192.906 308.596C191.756 307.624 190.597 306.667 189.422 305.752V250.006H313.13C313.046 249.673 312.961 249.34 312.871 249.013C312.966 249.34 313.056 249.673 313.14 250.006H344.86V327.096C345.029 327.102 345.193 327.117 345.358 327.128Z" fill="white"/>
<path opacity="0.1" d="M426.536 95.7678H406.129V89.1434H415.277V69.4106C416.07 69.7122 416.86 70.0224 417.646 70.3413V89.1434H426.536V95.7678Z" fill="white"/>
<path opacity="0.1" d="M475.7 173.628H375.519C375.519 173.628 375.519 173.628 375.554 173.654L375.509 173.628H356.925V101.17H362.191V154.727H386.255V123.009H406.134V97.9932H426.541V123.03H446.42V154.748H475.7V173.628Z" fill="white"/>
<path opacity="0.1" d="M356.925 175.848V247.78H475.7V175.848H356.925ZM507.943 332.452L508.107 275.516H475.7V250.037H356.925V375.09C366.663 375.517 376.415 375.395 386.141 374.726V374.726H386.31C390.955 374.42 395.579 373.977 400.181 373.394H400.286C424.839 370.409 448.847 363.717 471.559 353.526" fill="white"/>
<path opacity="0.1" d="M522.272 250.006H549.98C549.736 264.612 546.929 278.958 540.787 292.207C535.676 303.214 528.573 312.839 520.182 321.247V275.49H522.272V250.006Z" fill="white"/>
<path opacity="0.1" d="M549.995 247.781H522.272V187.667H537.273C545.038 206.62 549.97 227.419 549.995 247.781Z" fill="white"/>
<path opacity="0.1" d="M344.865 121.309H328.087V144.026H344.865V121.309Z" fill="white"/>
<path opacity="0.1" d="M344.865 168.397H328.087V173.628H344.865V168.397Z" fill="white"/>
<path opacity="0.1" d="M344.865 175.848H328.087V191.109H344.865V175.848Z" fill="white"/>
<path opacity="0.1" d="M344.865 215.485H328.087V238.203H344.865V215.485Z" fill="white"/>
<path opacity="0.1" d="M344.865 262.574H328.087V285.291H344.865V262.574Z" fill="white"/>
<path opacity="0.1" d="M344.86 327.096C345.029 327.096 345.193 327.096 345.358 327.128H344.86V332.405H328.087V309.662H344.86V327.096Z" fill="white"/>
<path opacity="0.1" d="M344.86 356.74V374.289C339.252 373.793 333.661 373.119 328.087 372.266V356.74H344.86Z" fill="white"/>
<path opacity="0.1" d="M261.328 246.111H189.422V247.78H261.328V246.111Z" fill="white"/>
<path opacity="0.1" d="M261.328 250.001H189.422V256.396H261.328V250.001Z" fill="white"/>
<path opacity="0.1" d="M261.328 277.361H189.422V287.646H261.328V277.361Z" fill="white"/>
<path opacity="0.1" d="M261.323 308.612V318.897H205.08C202.638 316.948 200.226 314.948 197.844 312.896C196.196 311.477 194.564 310.021 192.901 308.612H261.323Z" fill="white"/>
<path opacity="0.1" d="M261.323 339.857V350.131H255.385C248.712 346.987 242.17 343.557 235.76 339.841L261.323 339.857Z" fill="white"/>
<path opacity="0.1" d="M400.301 182.821H386.146V197.609H400.301V182.821Z" fill="white"/>
<path opacity="0.1" d="M93.8151 113.92H79.66V128.708H93.8151V113.92Z" fill="white"/>
<path opacity="0.1" d="M93.8151 148.269H79.66V163.057H93.8151V148.269Z" fill="white"/>
<path opacity="0.1" d="M93.8151 182.618H79.66V197.406H93.8151V182.618Z" fill="white"/>
<path opacity="0.1" d="M93.8151 216.962H79.66V231.75H93.8151V216.962Z" fill="white"/>
<path opacity="0.1" d="M93.8151 251.311H79.66V266.099H93.8151V251.311Z" fill="white"/>
<path opacity="0.1" d="M93.8151 285.66H79.66V300.448H93.8151V285.66Z" fill="white"/>
<path opacity="0.1" d="M454.338 182.821H440.183V197.609H454.338V182.821Z" fill="white"/>
<path opacity="0.1" d="M400.301 219.297H386.146V234.085H400.301V219.297Z" fill="white"/>
<path opacity="0.1" d="M454.338 219.297H440.183V234.085H454.338V219.297Z" fill="white"/>
<path opacity="0.1" d="M400.301 255.767H386.146V270.555H400.301V255.767Z" fill="white"/>
<path opacity="0.1" d="M454.338 255.767H440.183V270.555H454.338V255.767Z" fill="white"/>
<path opacity="0.1" d="M400.301 292.243H386.146V307.031H400.301V292.243Z" fill="white"/>
<path opacity="0.1" d="M454.338 292.243H440.183V307.031H454.338V292.243Z" fill="white"/>
<path opacity="0.1" d="M400.301 328.719H386.146V343.507H400.301V328.719Z" fill="white"/>
<path opacity="0.1" d="M454.338 328.719H440.183V343.507H454.338V328.719Z" fill="white"/>
<path opacity="0.1" d="M386.146 374.726V365.189H400.296V373.368L386.146 374.726Z" fill="white"/>
<path opacity="0.1" d="M8.95895 155.143V163.603H57.402V155.143H8.95895ZM13.7868 163.072H9.83494V155.663H13.8167L13.7868 163.072ZM18.6097 163.072H14.628V155.663H18.6097V163.072ZM23.4227 163.072H19.4409V155.663H23.4227V163.072ZM28.2456 163.072H24.2688V155.663H28.2506L28.2456 163.072ZM33.0635 163.072H29.0818V155.663H33.0635V163.072ZM37.8864 163.072H33.9047V155.663H37.8864V163.072ZM42.7093 163.072H38.7276V155.663H42.7093V163.072ZM47.5272 163.072H43.5455V155.663H47.5272V163.072ZM52.3452 163.072H48.3634V155.663H52.3452V163.072ZM57.1631 163.072H53.1813V155.663H57.1631V163.072Z" fill="white"/>
<path opacity="0.1" d="M8.95895 179.758V188.218H57.402V179.758H8.95895ZM13.7868 187.683H9.83494V180.294H13.8167L13.7868 187.683ZM18.6097 187.683H14.628V180.294H18.6097V187.683ZM23.4227 187.683H19.4409V180.294H23.4227V187.683ZM28.2456 187.683H24.2688V180.294H28.2506L28.2456 187.683ZM33.0635 187.683H29.0818V180.294H33.0635V187.683ZM37.8864 187.683H33.9047V180.294H37.8864V187.683ZM42.7093 187.683H38.7276V180.294H42.7093V187.683ZM47.5272 187.683H43.5455V180.294H47.5272V187.683ZM52.3452 187.683H48.3634V180.294H52.3452V187.683ZM57.1631 187.683H53.1813V180.294H57.1631V187.683Z" fill="white"/>
<path opacity="0.1" d="M8.95895 204.384V212.859H57.402V204.384H8.95895ZM13.7868 212.308H9.83494V204.914H13.8167L13.7868 212.308ZM18.6097 212.308H14.628V204.914H18.6097V212.308ZM23.4227 212.308H19.4409V204.914H23.4227V212.308ZM28.2456 212.308H24.2688V204.914H28.2506L28.2456 212.308ZM33.0635 212.308H29.0818V204.914H33.0635V212.308ZM37.8864 212.308H33.9047V204.914H37.8864V212.308ZM42.7093 212.308H38.7276V204.914H42.7093V212.308ZM47.5272 212.308H43.5455V204.914H47.5272V212.308ZM52.3452 212.308H48.3634V204.914H52.3452V212.308ZM57.1631 212.308H53.1813V204.914H57.1631V212.308Z" fill="white"/>
<path opacity="0.1" d="M8.95895 229.01V237.459H57.402V229.01H8.95895ZM13.7868 236.934H9.83494V229.535H13.8167L13.7868 236.934ZM18.6097 236.934H14.628V229.535H18.6097V236.934ZM23.4227 236.934H19.4409V229.535H23.4227V236.934ZM28.2456 236.934H24.2688V229.535H28.2506L28.2456 236.934ZM33.0635 236.934H29.0818V229.535H33.0635V236.934ZM37.8864 236.934H33.9047V229.535H37.8864V236.934ZM42.7093 236.934H38.7276V229.535H42.7093V236.934ZM47.5272 236.934H43.5455V229.535H47.5272V236.934ZM52.3452 236.934H48.3634V229.535H52.3452V236.934ZM57.1631 236.934H53.1813V229.535H57.1631V236.934Z" fill="white"/>
<path opacity="0.1" d="M9.168 253.63C9.36211 254.426 9.5811 255.221 9.81005 256.006V254.161H13.7918V261.554H11.6616C11.7263 261.726 11.791 261.913 11.8557 262.074H57.402V253.63H9.168ZM18.6247 261.554H14.6429V254.161H18.6247V261.554ZM23.4376 261.554H19.4559V254.161H23.4376V261.554ZM28.2605 261.554H24.2688V254.161H28.2506L28.2605 261.554ZM33.0784 261.554H29.0967V254.161H33.0784V261.554ZM37.9013 261.554H33.9196V254.161H37.9013V261.554ZM42.7243 261.554H38.7425V254.161H42.7243V261.554ZM47.5422 261.554H43.5604V254.161H47.5422V261.554ZM52.3601 261.554H48.3783V254.161H52.3601V261.554ZM57.178 261.554H53.1963V254.161H57.178V261.554Z" fill="white"/>
<path opacity="0.1" d="M20.4165 278.256C20.5409 278.422 20.6603 278.609 20.7897 278.776H23.4227V282.327C23.7064 282.681 23.9851 283.034 24.2738 283.367V278.755H28.2555V286.175H26.6429C26.8022 286.347 26.9565 286.529 27.1406 286.695H57.4169V278.256H20.4165ZM33.0635 286.175H29.0818V278.786H33.0635V286.175ZM37.8864 286.175H33.9047V278.786H37.8864V286.175ZM42.7093 286.175H38.7276V278.786H42.7093V286.175ZM47.5272 286.175H43.5455V278.786H47.5272V286.175ZM52.3452 286.175H48.3634V278.786H52.3452V286.175ZM57.1631 286.175H53.1813V278.786H57.1631V286.175Z" fill="white"/>
<path opacity="0.1" d="M46.9897 302.876C47.4426 303.147 47.9055 303.396 48.3734 303.667V303.407H52.3551V305.747L53.2012 306.157V303.407H57.183V307.904C57.2594 307.944 57.3394 307.975 57.4219 307.998V302.876H46.9897Z" fill="white"/>
<path opacity="0.1" d="M375.519 173.628H375.549H375.519ZM344.86 327.091H345.358H344.86ZM312.871 249.008C312.966 249.34 313.046 249.673 313.135 250.001C313.056 249.673 312.971 249.34 312.871 249.008ZM375.519 173.612H375.549H375.519ZM74.8968 95.7522V97.9725H97.13V95.7522H74.8968ZM344.86 327.091H345.358H344.86ZM312.871 249.008C312.966 249.34 313.046 249.673 313.135 250.001C313.056 249.673 312.971 249.34 312.871 249.008ZM375.519 173.612H375.549H375.519ZM344.86 327.076H345.358H344.86ZM312.871 249.008C312.966 249.34 313.046 249.673 313.135 250.001C313.056 249.673 312.971 249.34 312.871 249.008Z" fill="white"/>
<path d="M229.747 197.416C229.747 197.416 227.786 197.13 227.786 194.146C227.786 191.161 226.383 185.587 226.383 185.587C226.383 185.561 225.168 175.879 223.491 174.34C221.814 172.801 219.659 163.764 219.659 163.764C219.659 163.764 219.29 158.861 218.539 157.805C217.787 156.75 216.772 154.165 215.274 150.479C213.776 146.792 207.529 144.239 207.529 144.239C207.529 144.239 196.236 137.396 193.036 135.166C192.745 134.982 192.473 134.768 192.224 134.526C191.667 133.762 189.238 133.746 189.238 133.746C188.984 132.072 188.74 130.148 188.661 128.406C188.661 128.219 188.661 128.032 188.636 127.845C192.204 125.641 194.892 122.166 196.206 118.059C196.266 117.861 196.316 117.653 196.37 117.456C196.584 117.382 196.781 117.263 196.948 117.105C197.115 116.947 197.249 116.755 197.341 116.54C197.629 115.87 197.634 115.085 197.993 114.461C198.411 113.722 199.207 113.327 199.834 112.771C201.417 111.367 201.825 109.001 201.751 106.848C201.701 105.106 201.432 103.349 201.537 101.617L201.566 101.181C201.596 100.921 201.631 100.661 201.676 100.411C201.92 99.1215 202.452 97.9048 202.751 96.6257C203.05 95.3466 203.08 93.9063 202.383 92.8039C201.362 91.1868 199.237 90.8644 197.371 90.6981C195.255 90.5109 193.364 90.7553 192.01 88.9198C191.377 87.9604 190.664 87.0609 189.88 86.2315C189.601 85.9611 186.894 84.2349 186.894 84.1205C184.251 82.8418 181.256 82.6018 178.457 83.4445C177.054 83.8709 175.73 84.5676 174.306 84.916C171.235 85.6752 167.702 84.8536 165.094 86.6891C163.64 87.729 162.769 89.3825 161.953 90.9944C161.289 92.3221 160.616 93.648 159.932 94.9722C158.832 97.1509 157.712 99.3659 157.249 101.779C157.152 102.304 157.092 102.835 157.07 103.37V103.396C157.07 103.588 157.07 103.78 157.07 103.973V104.217C157.07 104.399 157.07 104.576 157.1 104.737C157.13 104.898 157.125 104.95 157.14 105.06C157.155 105.169 157.18 105.413 157.21 105.58C157.24 105.746 157.299 106.037 157.359 106.266C157.384 106.365 157.419 106.458 157.449 106.552C157.498 106.729 157.558 106.9 157.623 107.072C157.658 107.16 157.692 107.254 157.732 107.342C157.807 107.524 157.897 107.701 157.986 107.862C158.026 107.935 158.056 108.003 158.096 108.07C158.234 108.312 158.387 108.545 158.554 108.767C159.619 110.155 161.186 111.039 162.346 112.339C162.346 112.391 162.346 112.443 162.346 112.49C162.346 112.636 162.346 112.776 162.346 112.922C162.408 115.821 163.146 118.66 164.498 121.193C165.849 123.726 167.773 125.875 170.101 127.455C170.101 127.652 170.126 127.855 170.135 128.053C170.233 129.596 170.214 131.145 170.081 132.686C169.878 132.436 169.624 132.238 169.338 132.104C169.052 131.971 168.741 131.907 168.428 131.916C168.214 131.905 168 131.924 167.791 131.973L167.746 131.937V131.984C166.651 132.264 165.303 133.455 164.014 136.84C164.014 136.84 160.091 141.457 157.105 141.265C154.119 141.073 146.558 146.069 146.558 146.069C146.558 146.069 139.182 151.072 137.6 156.167C136.715 159.057 135.654 161.884 134.424 164.632L125.306 184.261L123.624 199.834C123.624 199.834 124.554 206.76 124.37 207.816C124.186 208.871 128.198 218.392 128.198 218.392C128.198 218.392 141.452 242.721 146.867 243.969L147.255 243.683C147.487 243.81 147.733 243.906 147.987 243.969L149.102 243.148C149.169 244.063 149.14 244.984 149.017 245.893C148.271 248.295 149.296 263.972 150.6 267.045C151.904 270.118 151.441 310.411 151.441 310.411L151.257 313.967C151.257 313.967 151.257 314.082 151.302 314.279L151.257 315.122L151.391 315.194C151.531 316.323 151.485 317.467 151.257 318.579C150.789 320.139 150.6 324.549 150.6 324.549C150.6 324.549 146.872 349.445 148.639 354.447C150.406 359.449 151.909 364.929 151.909 364.929C151.909 364.929 153.775 371.169 151.999 372.235C150.222 373.301 145.17 375.09 146.21 377.689C147.156 380.092 150.744 386.529 151.277 387.47L151.232 387.964L150.5 396.247C150.619 397.341 150.903 398.408 151.342 399.409C152.143 401.213 153.701 403.085 156.662 402.882C157.16 402.846 157.737 402.783 158.295 402.705C163.715 401.946 170.389 399.419 170.389 399.419C170.043 399.189 169.725 398.915 169.444 398.603V398.603C169.177 398.333 168.966 398.01 168.823 397.652C168.68 397.294 168.609 396.91 168.612 396.523C168.692 395.015 165.989 387.829 165.318 386.061C165.213 385.806 165.158 385.661 165.158 385.661C165.158 385.661 171.32 378.932 170.295 372.968C170.295 372.968 163.476 368.808 165.721 366.526C167.965 364.243 171.977 357.686 171.977 357.686C171.977 357.686 172.161 333.17 171.977 329.509C171.785 326.968 171.9 324.413 172.32 321.902C172.395 321.522 172.485 321.153 172.579 320.789C175.684 321.273 178.818 321.522 181.956 321.533C183.101 321.533 184.266 321.533 185.44 321.46C185.44 321.807 185.455 322.181 185.485 322.583C185.744 328.656 186.227 339.305 186.62 343.262C187.177 348.935 190.258 364.222 190.258 364.222C190.258 364.222 184.38 368.164 191.284 377.877C191.284 377.877 191.284 381.397 190.826 381.906C190.337 383.572 189.943 385.267 189.646 386.981C189.357 388.812 189.238 390.663 189.706 391.625C190.826 393.923 197.545 393.736 197.545 393.736L197.709 393.704C198.978 393.567 200.26 393.695 201.48 394.08C202.701 394.464 203.837 395.099 204.822 395.946C207.375 398.088 217.065 397.147 222.311 396.466C224.367 396.195 225.741 395.946 225.741 395.946C225.807 395.702 225.831 395.449 225.81 395.197C225.756 393.85 224.745 390.897 217.897 388.26C217.897 388.26 211.456 383.737 211.546 379.795H211.411H210.665C211.207 379.764 211.556 379.795 211.556 379.795C211.556 379.795 209.032 370.176 210.063 369.396C211.093 368.616 208.007 357.957 208.007 357.957C208.007 357.957 206.24 340.07 206.145 338.817C206.149 337.741 206.305 336.672 206.608 335.645L206.145 325.838C206.145 325.838 206.056 322.578 206.145 321.517C206.13 320.597 206.059 319.678 205.931 318.767C205.887 318.403 205.842 318.023 205.792 317.649C208.206 317.009 209.774 316.416 209.774 316.416L209.495 282.28C211.546 278.121 211.924 268.995 211.914 262.522C211.914 258.362 211.735 255.284 211.735 255.284L214.537 250.505C214.537 250.505 215.184 244.785 214.159 243.532C213.706 242.966 213.91 242.378 214.283 241.894C214.477 241.734 214.682 241.588 214.895 241.458C214.895 241.458 214.866 241.411 214.831 241.343C215.026 241.173 215.234 241.018 215.453 240.881C215.453 240.881 214.457 239.269 215.348 238.587C216.184 239.18 216.931 239.627 217.498 239.991C217.459 240.371 217.419 240.589 217.419 240.589L217.658 240.069C218.205 240.392 218.539 240.589 218.539 240.589C218.539 240.589 222.929 231.454 222.834 230.107C222.739 228.76 225.82 223.087 225.82 223.087C225.82 223.087 226.194 220.108 227.876 218.86C229.558 217.612 229.18 208.57 229.18 208.57C229.18 208.57 229.648 203.859 230.768 201.935C231.888 200.011 229.747 197.416 229.747 197.416ZM145.752 193.407L145.837 195.586C145.339 194.749 144.981 194.146 144.981 194.146L145.752 193.407Z" fill="url(#paint0_linear_747_584)"/>
<path d="M218.778 236.643L217.703 241.426C217.703 241.426 209.092 236.835 207.539 231.001C205.986 225.167 210.137 222.952 210.137 222.952L218.16 226.503L218.778 236.643Z" fill="white"/>
<path opacity="0.1" d="M218.778 236.643L217.703 241.426C217.703 241.426 209.092 236.835 207.539 231.001C205.986 225.167 210.137 222.952 210.137 222.952L218.16 226.503L218.778 236.643Z" fill="black"/>
<path d="M170.454 399.45C170.454 399.45 162.49 402.507 157.016 402.892C154.109 403.095 152.581 401.234 151.795 399.44C151.365 398.442 151.088 397.381 150.973 396.294L151.685 388.052L152.063 383.664L163.695 380.508L165.342 385.77L165.497 386.17C166.159 387.928 168.812 395.077 168.732 396.569C168.729 396.952 168.799 397.33 168.94 397.683C169.08 398.036 169.287 398.356 169.548 398.623C169.815 398.938 170.12 399.216 170.454 399.45V399.45Z" fill="white"/>
<path d="M224.85 395.259C224.87 395.509 224.846 395.761 224.78 396.003C224.78 396.003 207.748 398.972 204.264 396.003C203.282 395.135 202.137 394.492 200.903 394.114C199.668 393.736 198.372 393.632 197.097 393.808C197.097 393.808 190.507 393.996 189.407 391.729C188.949 390.777 189.069 388.931 189.352 387.111C189.642 385.406 190.027 383.72 190.507 382.062L190.771 381.844L192.339 380.528L210.695 379.962H210.834C210.744 383.882 217.065 388.38 217.065 388.38C223.78 390.98 224.77 393.918 224.85 395.259Z" fill="white"/>
<path opacity="0.1" d="M224.85 395.259C224.867 395.51 224.842 395.761 224.775 396.003C224.775 396.003 207.748 398.972 204.264 396.003C203.282 395.136 202.138 394.493 200.905 394.115C199.672 393.737 198.376 393.633 197.102 393.808C197.102 393.808 190.507 393.996 189.412 391.729C188.954 390.772 189.069 388.931 189.352 387.111C191.891 387.376 195.897 388.037 197.47 389.612C199.849 392.009 203.881 394.401 206.355 394.588C208.291 394.718 219.873 395.103 224.85 395.259Z" fill="black"/>
<path opacity="0.1" d="M170.454 399.45C170.454 399.45 162.491 402.507 157.016 402.892C154.109 403.095 152.581 401.234 151.799 399.434C153.825 400.147 156.637 400.896 158.116 400.209C159.868 399.398 166.079 398.873 169.563 398.649C169.828 398.953 170.127 399.221 170.454 399.45V399.45Z" fill="black"/>
<path d="M182.27 153.063C175.7 150.396 167.249 141.582 169.359 137.464C169.828 136.425 170.106 135.303 170.18 134.157C170.316 132.601 170.336 131.036 170.24 129.477C170.092 126.924 169.798 124.382 169.359 121.865C169.359 121.865 189.87 122.349 188.676 125.505C188.327 126.43 188.272 128.037 188.367 129.836C188.462 131.635 188.71 133.668 188.969 135.389C189.328 137.75 189.686 139.549 189.686 139.549C189.686 139.549 188.432 141.385 187.695 141.483C186.958 141.582 191.697 156.864 182.27 153.063Z" fill="#CF6F80"/>
<path opacity="0.1" d="M165.482 386.17L165.328 386.347C159.196 378.599 151.78 388.255 151.78 388.255L151.67 388.052L152.048 383.664L163.68 380.508L165.328 385.77L165.482 386.17Z" fill="black"/>
<path opacity="0.1" d="M210.839 380.508C210.839 380.508 206.359 380.409 203.97 382.614C201.581 384.818 190.034 383.092 190.532 382.614C190.679 382.376 190.768 382.105 190.791 381.823L192.359 380.508L210.715 379.941C210.784 380.289 210.839 380.508 210.839 380.508Z" fill="black"/>
<path d="M173.112 319.666C172.778 320.528 172.525 321.421 172.355 322.334C171.94 324.832 171.825 327.376 172.012 329.904C172.196 333.544 172.012 357.936 172.012 357.936C172.012 357.936 168.075 364.441 165.88 366.734C163.685 369.027 170.359 373.145 170.359 373.145C171.355 379.072 165.323 385.77 165.323 385.77C159.191 378.022 151.775 387.683 151.775 387.683C151.775 387.683 147.743 380.404 146.738 377.804C145.732 375.204 150.675 373.405 152.412 372.349C154.149 371.294 152.327 365.07 152.327 365.07C152.327 365.07 150.859 359.615 149.117 354.639C147.375 349.663 151.038 324.892 151.038 324.892C151.038 324.892 151.227 320.493 151.68 318.959C151.909 317.852 151.954 316.712 151.814 315.59C151.785 315.21 151.75 314.893 151.725 314.68C151.7 314.466 151.68 314.368 151.68 314.368L151.75 314.243L154.238 309.397C154.238 309.397 174.306 316.614 173.112 319.666Z" fill="#1D2366"/>
<path d="M210.839 379.936C210.839 379.936 206.359 379.837 203.97 382.016C201.581 384.194 190.034 382.494 190.532 382.016C191.03 381.537 190.99 377.996 190.99 377.996C184.216 368.335 189.994 364.415 189.994 364.415C189.994 364.415 186.968 349.206 186.421 343.564C186.038 339.623 185.565 329.031 185.311 322.984C185.201 320.384 185.137 318.595 185.137 318.595L190.671 317.43L191.383 317.279L204.732 314.482C204.732 314.482 205.1 317.082 205.349 319.209C205.473 320.117 205.543 321.032 205.558 321.949C205.469 322.989 205.558 326.244 205.558 326.244L206.011 336.004C205.715 337.027 205.563 338.09 205.558 339.16C205.648 340.403 207.385 358.196 207.385 358.196C207.385 358.196 210.406 368.814 209.376 369.578C208.345 370.342 210.839 379.936 210.839 379.936Z" fill="#1D2366"/>
<path opacity="0.1" d="M188.676 125.505C188.327 126.43 188.272 128.037 188.367 129.836C185.62 131.564 182.461 132.448 179.255 132.386C176.048 132.323 172.924 131.317 170.24 129.483C170.092 126.927 169.798 124.384 169.359 121.865C169.359 121.865 189.87 122.338 188.676 125.505Z" fill="black"/>
<path d="M196.604 114.013C196.608 115.887 196.326 117.75 195.768 119.53C194.521 123.52 191.964 126.921 188.549 129.132C185.134 131.343 181.08 132.222 177.105 131.613C173.13 131.004 169.489 128.946 166.826 125.803C164.162 122.661 162.648 118.636 162.55 114.44C162.55 114.294 162.55 114.159 162.55 114.013C162.512 111.652 162.923 109.305 163.762 107.111C164.6 104.918 165.849 102.92 167.434 101.235C169.019 99.5509 170.909 98.2129 172.995 97.2996C175.08 96.3863 177.319 95.916 179.58 95.916C181.841 95.916 184.079 96.3863 186.165 97.2996C188.25 98.2129 190.14 99.5509 191.726 101.235C193.311 102.92 194.559 104.918 195.397 107.111C196.236 109.305 196.648 111.652 196.609 114.013H196.604Z" fill="#CF6F80"/>
<path opacity="0.1" d="M182.27 153.063C175.7 150.396 167.249 141.582 169.359 137.464C169.828 136.425 170.106 135.303 170.18 134.157L179.174 141.879L184.739 146.647L188.969 135.394C189.328 137.755 189.686 139.554 189.686 139.554C189.686 139.554 188.432 141.39 187.695 141.489C186.958 141.587 191.697 156.864 182.27 153.063Z" fill="black"/>
<path d="M205.528 187.189L198.018 319.001L188.223 319.671L162.859 243.241L167.02 152.502L167.896 133.33L179.174 143.007L184.744 147.775L189.099 136.195L197.196 143.568L205.528 187.189Z" fill="#1D2366"/>
<path opacity="0.1" d="M173.112 319.666C172.778 320.528 172.525 321.421 172.355 322.334C165.228 321.184 158.306 318.925 151.819 315.631L151.685 315.558L151.73 314.721L151.755 314.284L154.243 309.438C154.243 309.438 174.306 316.614 173.112 319.666Z" fill="black"/>
<path opacity="0.1" d="M190.786 322.354C188.964 322.678 187.126 322.897 185.281 323.01C185.172 320.41 185.107 318.621 185.107 318.621L190.642 317.456L190.786 322.354Z" fill="black"/>
<path opacity="0.1" d="M205.319 319.235C201.781 320.197 196.316 321.278 191.423 320.602L191.353 317.305L204.702 314.508C204.702 314.508 205.07 317.082 205.319 319.235Z" fill="black"/>
<path opacity="0.1" d="M191.333 321.205C170.927 324.845 152.237 314.409 152.237 314.409L152.417 310.873C152.417 310.873 152.88 270.789 151.595 267.716C150.311 264.643 149.311 249.06 150.038 246.668C150.764 244.276 147.385 208.408 147.385 208.408L146.837 193.849L126.799 185.369L135.758 165.859C136.968 163.124 138.009 160.311 138.874 157.436C140.432 152.372 147.663 147.395 147.663 147.395C147.663 147.395 155.079 142.425 158.011 142.612C160.943 142.799 164.785 138.213 164.785 138.213C167.622 130.658 170.19 134.079 170.19 134.079C170.19 134.438 170.19 134.079 170.051 135.197C169.055 143.49 186.147 169.697 186.391 170.16L188.019 211.58L189.666 263.998L191.333 321.205Z" fill="black"/>
<path d="M190.786 321.205C170.379 324.845 151.685 314.409 151.685 314.409L151.869 310.873C151.869 310.873 152.332 270.789 151.043 267.716C149.754 264.643 148.758 249.06 149.49 246.668C150.222 244.276 146.837 208.408 146.837 208.408L146.285 193.849L126.237 185.338L135.196 165.828C136.403 163.092 137.444 160.278 138.311 157.405C139.864 152.34 147.101 147.364 147.101 147.364C147.101 147.364 154.517 142.393 157.444 142.581C160.37 142.768 164.218 138.182 164.218 138.182C167.06 130.626 170.19 134.048 170.19 134.048C170.19 134.407 169.892 134.568 170.051 135.166C172.241 143.21 185.6 169.666 185.843 170.128L187.491 211.549L189.138 263.967L190.786 321.205Z" fill="white"/>
<path opacity="0.1" d="M185.286 171.309C183.091 170.352 171.464 156.484 171.464 156.484V153.328C171.041 152.288 168.528 152.923 166.487 153.651L167.363 134.479L168.359 135.343C170.539 143.381 185.032 170.846 185.286 171.309Z" fill="black"/>
<path d="M185.839 170.16C183.639 169.203 172.012 155.335 172.012 155.335V152.179C171.589 151.139 169.075 151.774 167.035 152.502L167.916 133.33L168.911 134.193C171.096 142.232 185.595 169.702 185.839 170.16Z" fill="white"/>
<path opacity="0.1" d="M152.237 239.321C152.511 239.321 166.427 237.792 166.427 237.792C166.427 237.792 174.854 255.102 174.301 259.313C173.749 263.525 172.749 267.253 169.359 266.593C165.97 265.933 151.118 267.113 151.118 267.113L152.237 239.321Z" fill="black"/>
<path d="M151.685 238.171C151.959 238.171 165.875 236.643 165.875 236.643C165.875 236.643 174.296 253.958 173.749 258.164C173.201 262.371 172.191 266.104 168.807 265.444C165.422 264.783 150.565 265.964 150.565 265.964L151.685 238.171Z" fill="white"/>
<path d="M162.172 230.044C162.172 230.044 174.943 237.215 175.217 239.404C175.491 241.593 168.717 238.447 167.254 238.067C166.291 237.825 165.31 237.665 164.322 237.589L154.562 237.865L162.172 230.044Z" fill="#CF6F80"/>
<path opacity="0.1" d="M181.722 172.203C182.465 172.203 183.066 171.575 183.066 170.799C183.066 170.024 182.465 169.395 181.722 169.395C180.98 169.395 180.379 170.024 180.379 170.799C180.379 171.575 180.98 172.203 181.722 172.203Z" fill="black"/>
<path d="M181.722 171.631C182.465 171.631 183.066 171.003 183.066 170.227C183.066 169.452 182.465 168.823 181.722 168.823C180.98 168.823 180.379 169.452 180.379 170.227C180.379 171.003 180.98 171.631 181.722 171.631Z" fill="#3F3D56"/>
<path opacity="0.1" d="M184.196 232.977C184.938 232.977 185.54 232.348 185.54 231.573C185.54 230.798 184.938 230.169 184.196 230.169C183.454 230.169 182.852 230.798 182.852 231.573C182.852 232.348 183.454 232.977 184.196 232.977Z" fill="black"/>
<path d="M184.196 232.4C184.938 232.4 185.54 231.771 185.54 230.996C185.54 230.221 184.938 229.592 184.196 229.592C183.454 229.592 182.852 230.221 182.852 230.996C182.852 231.771 183.454 232.4 184.196 232.4Z" fill="#3F3D56"/>
<path opacity="0.1" d="M183.061 202.59C183.803 202.59 184.405 201.961 184.405 201.186C184.405 200.411 183.803 199.782 183.061 199.782C182.319 199.782 181.717 200.411 181.717 201.186C181.717 201.961 182.319 202.59 183.061 202.59Z" fill="black"/>
<path d="M183.061 202.018C183.803 202.018 184.405 201.39 184.405 200.614C184.405 199.839 183.803 199.21 183.061 199.21C182.319 199.21 181.717 199.839 181.717 200.614C181.717 201.39 182.319 202.018 183.061 202.018Z" fill="#3F3D56"/>
<path d="M214.039 237.298C214.039 237.298 214.955 238.733 214.039 239.404C213.124 240.075 214.129 241.697 214.129 241.697C214.129 241.697 211.844 243.096 212.85 244.354C213.855 245.612 213.218 251.295 213.218 251.295L210.471 256.048C210.471 256.048 210.635 259.111 210.645 263.25C210.645 269.708 210.282 278.786 208.271 282.925L208.549 316.884C208.549 316.884 198.929 320.555 190.875 319.437L189.681 264.945C189.681 264.945 191.423 234.043 192.065 228.115C192.441 225.038 192.594 221.935 192.523 218.834C192.523 218.834 192.249 209.558 191.328 205.252C191.328 205.252 190.333 186.601 190.233 181.438C190.189 178.968 190.313 171.761 190.452 164.908C190.607 157.415 190.781 150.349 190.781 150.349L188.964 135.332C188.964 135.332 190.781 135.14 191.328 135.904C191.574 136.143 191.84 136.358 192.125 136.544V136.544C195.26 138.759 206.34 145.57 206.34 145.57C206.34 145.57 212.471 148.118 213.94 151.768C215.408 155.419 216.428 158.008 217.14 159.048C217.852 160.088 218.24 164.976 218.24 164.976C218.24 164.976 220.35 173.971 221.998 175.495C223.645 177.018 224.85 186.71 224.85 186.71L210.291 198.67C210.291 198.67 209.012 218.564 208.739 219.333C208.465 220.103 214.039 237.298 214.039 237.298Z" fill="white"/>
<path d="M214.592 237.298C214.592 237.298 215.503 238.733 214.592 239.404C213.681 240.075 214.676 241.697 214.676 241.697C214.676 241.697 212.407 243.111 213.402 244.369C214.398 245.628 213.771 251.311 213.771 251.311L211.023 256.064C211.023 256.064 211.187 259.126 211.202 263.265C211.202 269.723 210.839 278.802 208.828 282.941L209.102 316.9C209.102 316.9 199.466 320.571 191.423 319.453L190.233 264.96C190.233 264.96 191.975 234.059 192.617 228.131C192.994 225.054 193.145 221.951 193.07 218.849C193.07 218.849 192.797 209.573 191.881 205.268C191.881 205.268 190.885 186.617 190.781 181.453C190.736 178.983 190.865 171.777 191 164.924C191.154 157.431 191.328 150.364 191.328 150.364L188.929 135.145C188.929 135.145 191.328 135.145 191.881 135.92C192.124 136.162 192.391 136.376 192.677 136.559C195.813 138.774 206.897 145.586 206.897 145.586C206.897 145.586 213.024 148.134 214.492 151.784C215.961 155.434 216.981 158.024 217.698 159.063C218.414 160.103 218.793 164.991 218.793 164.991C218.793 164.991 220.903 173.987 222.55 175.51C224.198 177.034 225.387 186.705 225.387 186.705L210.829 198.664C210.829 198.664 209.55 218.558 209.271 219.328C208.992 220.097 214.592 237.298 214.592 237.298Z" fill="white"/>
<path opacity="0.1" d="M197.157 154.779L198.471 158.783L191.552 166.062C191.707 158.575 191.881 151.503 191.881 151.503L189.482 136.284C189.482 136.284 191.881 136.284 192.433 137.058C192.676 137.3 192.943 137.513 193.23 137.693L199.113 155.424L197.157 154.779Z" fill="black"/>
<path d="M196.604 153.63L197.923 157.634L191.005 164.913C191.159 157.42 191.333 150.354 191.333 150.354L188.929 135.135C188.929 135.135 191.333 135.135 191.881 135.909C192.125 136.15 192.392 136.364 192.677 136.549L198.565 154.275L196.604 153.63Z" fill="white"/>
<path opacity="0.1" d="M196.604 114.013C196.608 115.887 196.326 117.75 195.768 119.53C195.674 119.546 195.578 119.541 195.486 119.517C195.393 119.493 195.307 119.45 195.23 119.39C195.101 114.71 192.896 110.316 190.184 106.578C189.422 105.449 188.499 104.449 187.446 103.614C186.382 102.779 185.058 102.388 183.733 102.517C182.24 102.73 180.921 103.791 179.413 103.926C177.422 104.098 175.64 102.657 173.664 102.585C172.861 102.592 172.069 102.779 171.34 103.133C170.611 103.486 169.963 103.997 169.439 104.633C168.401 105.916 167.629 107.411 167.174 109.022C166.391 111.465 165.965 114.017 165.91 116.592C165.885 118.048 165.751 119.873 164.456 120.404C164.554 119.333 164.437 118.253 164.114 117.232C163.791 116.21 163.269 115.27 162.58 114.471L162.55 114.44C162.55 114.294 162.55 114.159 162.55 114.013C162.512 111.652 162.923 109.305 163.762 107.111C164.6 104.918 165.849 102.92 167.434 101.235C169.019 99.5509 170.909 98.2129 172.995 97.2996C175.08 96.3863 177.319 95.916 179.58 95.916C181.841 95.916 184.079 96.3863 186.165 97.2996C188.25 98.2129 190.14 99.5509 191.726 101.235C193.311 102.92 194.559 104.918 195.397 107.111C196.236 109.305 196.648 111.652 196.609 114.013H196.604Z" fill="black"/>
<path d="M186.63 85.7636C184.044 84.4926 181.102 84.2522 178.358 85.0876C176.979 85.514 175.68 86.2056 174.281 86.5539C171.295 87.3079 167.811 86.4915 165.248 88.3166C163.824 89.3566 162.968 90.9997 162.172 92.596L160.181 96.5581C159.096 98.7264 158.001 100.931 157.548 103.318C157.095 105.704 157.369 108.377 158.817 110.296C159.872 111.694 161.43 112.573 162.575 113.889C163.261 114.689 163.781 115.628 164.103 116.648C164.425 117.668 164.542 118.747 164.447 119.816C165.746 119.296 165.87 117.466 165.9 116.01C165.955 113.435 166.382 110.882 167.164 108.439C167.618 106.828 168.39 105.333 169.429 104.051C169.954 103.416 170.602 102.904 171.33 102.551C172.059 102.198 172.851 102.011 173.654 102.002C175.645 102.075 177.432 103.51 179.403 103.338C180.896 103.209 182.22 102.143 183.723 101.935C185.049 101.804 186.373 102.195 187.436 103.032C188.488 103.866 189.41 104.866 190.169 105.996C192.886 109.734 195.091 114.117 195.221 118.808C195.783 119.239 196.594 118.678 196.873 118.012C197.152 117.346 197.162 116.566 197.515 115.932C197.923 115.199 198.705 114.809 199.317 114.258C200.87 112.859 201.258 110.504 201.198 108.367C201.138 106.23 200.74 104.061 201.128 101.961C201.362 100.671 201.89 99.4647 202.179 98.1908C202.467 96.9169 202.502 95.487 201.82 94.3899C200.825 92.778 198.729 92.4608 196.903 92.31C194.827 92.1228 192.971 92.362 191.647 90.5369C191.025 89.5845 190.326 88.6903 189.556 87.8643C189.293 87.5939 186.63 85.878 186.63 85.7636Z" fill="#512E4E"/>
<path opacity="0.1" d="M132.533 195.415L127.332 185.369L125.684 200.869C125.684 200.869 126.6 207.753 126.416 208.809C126.232 209.864 130.169 219.328 130.169 219.328C130.169 219.328 143.174 243.527 148.485 244.775L166.427 231.381L161.669 225.068C161.669 225.068 160.022 224.398 159.609 225.068C159.609 225.068 150.774 209.188 149.858 208.039C148.943 206.89 149.122 204.597 149.122 204.597C149.122 204.597 147.748 203.068 148.206 201.633C148.664 200.198 145.553 195.222 145.553 195.222L148.39 192.451L132.533 195.415Z" fill="black"/>
<path d="M127.605 184.225L126.232 185.369L124.584 200.869C124.584 200.869 125.5 207.753 125.316 208.809C125.132 209.864 129.074 219.328 129.074 219.328C129.074 219.328 142.074 243.527 147.385 244.775L165.332 231.381L160.569 225.068C160.569 225.068 158.922 224.398 158.509 225.068C158.509 225.068 149.674 209.188 148.758 208.039C147.843 206.89 148.027 204.597 148.027 204.597C148.027 204.597 146.653 203.068 147.111 201.633C147.569 200.198 144.453 195.222 144.453 195.222L147.29 192.451L127.605 184.225Z" fill="white"/>
<path opacity="0.1" d="M212.85 244.947C213.845 246.21 213.218 251.883 213.218 251.883L210.471 256.636C210.471 256.636 210.635 259.703 210.645 263.837L206.026 265.345C205.609 265.481 205.166 265.511 204.735 265.432C204.305 265.353 203.898 265.168 203.55 264.892C203.202 264.616 202.922 264.256 202.733 263.844C202.545 263.432 202.454 262.978 202.467 262.522L203.264 235.686L214.039 239.991C213.123 240.657 214.129 242.29 214.129 242.29C214.129 242.29 211.844 243.683 212.85 244.947Z" fill="black"/>
<path d="M213.402 244.37C214.398 245.633 213.771 251.311 213.771 251.311L211.023 256.064C211.023 256.064 211.187 259.126 211.202 263.265L206.499 264.799C206.09 264.932 205.657 264.961 205.235 264.883C204.814 264.806 204.416 264.624 204.075 264.353C203.734 264.083 203.46 263.731 203.276 263.327C203.091 262.924 203.002 262.48 203.015 262.033L203.816 235.114L214.597 239.419C213.676 240.085 214.681 241.713 214.681 241.713C214.681 241.713 212.407 243.111 213.402 244.37Z" fill="white"/>
<path d="M216.971 231.578C216.971 231.578 216.239 236.461 214.408 236.747C212.576 237.033 211.755 244.645 209.928 244.375C208.102 244.104 209.311 237.298 209.376 235.977C209.44 234.656 207.385 229.186 208.923 227.944C210.461 226.701 215.328 227.944 215.328 227.944L216.971 231.578Z" fill="#CF6F80"/>
<path opacity="0.1" d="M220.868 193.979L224.322 186.7C224.322 186.7 225.696 192.248 225.696 195.212C225.696 198.176 227.617 198.467 227.617 198.467C227.617 198.467 229.722 201.067 228.613 202.959C227.503 204.852 227.055 209.563 227.055 209.563C227.055 209.563 227.418 218.553 225.771 219.796C224.123 221.039 223.78 224.008 223.78 224.008C223.78 224.008 220.754 229.649 220.848 230.991C220.943 232.332 216.637 241.416 216.637 241.416C216.637 241.416 218.743 230.128 206.474 225.25C206.474 225.25 206.379 221.418 207.295 220.368C208.211 219.317 209.639 218.839 208.744 213.53C207.848 208.221 208.485 201.878 208.485 200.604C208.485 199.33 211.232 191.385 211.232 191.385L220.868 193.979Z" fill="black"/>
<path d="M222.361 185.66L225.377 186.7C225.377 186.7 226.756 192.248 226.756 195.212C226.756 198.176 228.677 198.467 228.677 198.467C228.677 198.467 230.783 201.067 229.673 202.959C228.563 204.852 228.12 209.563 228.12 209.563C228.12 209.563 228.483 218.553 226.836 219.796C225.188 221.039 224.82 224.008 224.82 224.008C224.82 224.008 221.799 229.649 221.893 230.991C221.988 232.332 217.678 241.416 217.678 241.416C217.678 241.416 219.788 230.128 207.514 225.25C207.514 225.25 207.425 221.418 208.34 220.368C209.256 219.317 210.685 218.839 209.789 213.53C208.893 208.221 209.53 201.878 209.53 200.604C209.53 199.33 212.277 191.385 212.277 191.385L222.361 185.66Z" fill="white"/>
<path opacity="0.1" d="M155.741 374.341C155.741 374.341 160.549 371.185 163.705 373.478C166.86 375.771 155.741 374.341 155.741 374.341Z" fill="black"/>
<path opacity="0.1" d="M193.1 364.581C193.1 364.581 197.356 364.009 200.929 368.028C204.503 372.048 193.1 364.581 193.1 364.581Z" fill="black"/>
<g opacity="0.1">
<path opacity="0.1" d="M199.327 113.119C198.715 113.67 197.928 114.066 197.52 114.799C197.172 115.428 197.162 116.203 196.883 116.879C196.604 117.554 195.793 118.106 195.23 117.679C195.101 113 192.891 108.606 190.179 104.862C189.42 103.732 188.498 102.732 187.446 101.898C186.381 101.062 185.055 100.67 183.728 100.801C182.235 101.014 180.921 102.075 179.413 102.205C177.422 102.382 175.635 100.941 173.659 100.869C172.856 100.877 172.064 101.065 171.336 101.419C170.608 101.773 169.961 102.286 169.439 102.923C168.4 104.203 167.628 105.696 167.174 107.306C166.392 109.749 165.966 112.301 165.91 114.877C165.88 116.327 165.751 118.137 164.466 118.678C164.496 119.062 164.496 119.448 164.466 119.832C165.761 119.312 165.89 117.482 165.92 116.026C165.975 113.45 166.401 110.898 167.184 108.455C167.638 106.843 168.41 105.349 169.449 104.066C169.972 103.431 170.62 102.92 171.348 102.567C172.075 102.214 172.867 102.027 173.669 102.018C175.66 102.091 177.452 103.526 179.423 103.354C180.916 103.224 182.24 102.158 183.738 101.95C185.065 101.819 186.391 102.211 187.456 103.047C188.508 103.881 189.43 104.881 190.189 106.011C192.901 109.75 195.111 114.133 195.24 118.823C195.803 119.255 196.614 118.693 196.893 118.028C197.172 117.362 197.182 116.582 197.53 115.948C197.938 115.215 198.724 114.825 199.337 114.273C200.89 112.875 201.278 110.519 201.218 108.382C201.218 108.315 201.218 108.247 201.218 108.185C201.123 110.036 200.651 111.923 199.327 113.119Z" fill="black"/>
<path opacity="0.1" d="M162.585 112.75C161.44 111.434 159.877 110.556 158.827 109.162C157.943 107.929 157.438 106.444 157.379 104.904C157.222 106.828 157.737 108.747 158.827 110.306C159.877 111.705 161.44 112.584 162.585 113.899C163.684 115.186 164.344 116.817 164.461 118.537C164.538 117.49 164.411 116.438 164.088 115.444C163.766 114.449 163.255 113.533 162.585 112.75V112.75Z" fill="black"/>
<path opacity="0.1" d="M202.189 97.0521C201.895 98.326 201.372 99.5376 201.133 100.822C200.992 101.68 200.94 102.552 200.979 103.422C200.996 102.926 201.047 102.433 201.133 101.945C201.372 100.655 201.895 99.4492 202.189 98.1752C202.36 97.4726 202.415 96.7447 202.353 96.0226C202.322 96.3694 202.267 96.7135 202.189 97.0521V97.0521Z" fill="black"/>
</g>
<path opacity="0.1" d="M66.0623 395.483C92.8469 395.483 114.56 391.839 114.56 387.345C114.56 382.851 92.8469 379.208 66.0623 379.208C39.2777 379.208 17.5645 382.851 17.5645 387.345C17.5645 391.839 39.2777 395.483 66.0623 395.483Z" fill="white"/>
<path d="M67.6251 231.459H64.5045V304.863H67.6251V231.459Z" fill="#535461"/>
<path d="M87.2353 304.639L87.0412 307.946L86.7625 312.626L86.648 314.57L86.3743 319.25L86.2548 321.195L85.9761 325.874L82.8305 378.948C82.6938 381.231 81.7293 383.374 80.1333 384.941C78.5374 386.508 76.4299 387.381 74.2398 387.382H57.8848C55.6952 387.381 53.5883 386.508 51.9932 384.941C50.398 383.374 49.4346 381.231 49.2991 378.948L46.1685 325.838L45.8897 321.158L45.7753 319.214L45.4965 314.534L45.3821 312.589L45.1033 307.91L44.9043 304.603C44.8697 303.966 44.9599 303.329 45.1695 302.73C45.3791 302.132 45.7036 301.584 46.123 301.121C46.5425 300.658 47.0481 300.289 47.6088 300.038C48.1695 299.786 48.7735 299.657 49.3837 299.658H82.8355C83.4434 299.663 84.0438 299.799 84.5996 300.056C85.1555 300.313 85.655 300.687 86.0672 301.154C86.4795 301.62 86.7959 302.171 86.9968 302.77C87.1977 303.369 87.2788 304.006 87.2353 304.639V304.639Z" fill="#3F3D56"/>
<path d="M87.0412 307.946L86.7625 312.61H45.3622L45.0834 307.946H87.0412Z" fill="#9D9CB5"/>
<path d="M86.648 314.555L86.3742 319.224H45.7554L45.4766 314.555H86.648Z" fill="#9D9CB5"/>
<path d="M86.2548 321.174L85.9811 325.838H46.1486L45.8698 321.174H86.2548Z" fill="#9D9CB5"/>
<path d="M40.3203 258.97C58.492 272.708 66.0772 294.193 66.0772 294.193C66.0772 294.193 44.1776 293.408 26.0009 279.67C7.82415 265.933 0.25383 244.453 0.25383 244.453C0.25383 244.453 22.1435 245.233 40.3203 258.97Z" fill="white"/>
<path d="M0.238907 244.453C0.238907 244.453 22.9747 257.634 30.2663 268.548C37.5579 279.462 66.0772 294.193 66.0772 294.193" stroke="#535461" stroke-width="2" stroke-miterlimit="10"/>
<path d="M52.0515 231.298C61.9412 238.769 66.0772 250.464 66.0772 250.464C66.0772 250.464 54.1569 250.037 44.2622 242.565C34.3675 235.093 30.2414 223.394 30.2414 223.394C30.2414 223.394 42.1568 223.82 52.0515 231.298Z" fill="white"/>
<path d="M30.2414 223.394C30.2414 223.394 42.6147 230.57 46.5816 236.508C50.5484 242.446 66.0772 250.464 66.0772 250.464" stroke="#535461" stroke-width="2" stroke-miterlimit="10"/>
<path d="M80.4365 249.871C69.0735 262.917 66.6695 279.967 66.6695 279.967C66.6695 279.967 82.6911 275.859 94.0441 262.808C105.397 249.756 107.811 232.712 107.811 232.712C107.811 232.712 91.7994 236.825 80.4365 249.871Z" fill="white"/>
<path d="M107.821 232.717C107.821 232.717 93.0188 246.091 89.256 255.304C85.4933 264.518 66.6695 279.967 66.6695 279.967" stroke="#535461" stroke-width="2" stroke-miterlimit="10"/>
<path d="M497.555 245.279C497.555 245.279 489.338 202.569 492.484 197.255C492.484 197.255 492.598 192.316 492.409 186.019C492.409 185.78 492.409 185.54 492.409 185.296C492.962 185.681 493.539 186.029 494.136 186.336C497.034 187.891 500.361 188.34 503.543 187.605L501.054 184.708C500.457 184.017 499.835 183.268 499.705 182.353C499.576 181.438 499.934 180.621 500.243 179.805C502.607 173.565 502.732 165.719 498.177 160.956C494.33 156.952 493.394 151.784 489.218 148.129C486.167 145.451 484.49 141.525 482.907 137.729C481.569 134.521 480.22 131.287 479.453 127.886C478.856 125.229 478.617 122.479 477.796 119.884C476.975 117.289 475.437 114.767 473.033 113.608C472.177 113.197 471.226 112.963 470.445 112.417C469.419 111.694 468.802 110.519 468.06 109.49C464.293 104.29 451.675 107.353 445.703 109.464C444.079 109.995 442.576 110.866 441.283 112.022L441.338 111.928C441.383 111.85 441.437 111.772 441.487 111.694C440.833 112.247 440.269 112.905 439.815 113.644C438.944 115.085 438.581 116.764 437.854 118.324C436.978 120.17 432.105 125.323 434.201 127.397C434.347 127.537 434.516 127.649 434.698 127.73C435.485 128.072 436.351 128.163 437.187 127.99L437.097 128.214C436.382 130.044 436.015 132.003 436.017 133.98C436.017 142.523 442.761 149.449 451.088 149.449C452.654 149.451 454.21 149.2 455.702 148.706C455.737 148.903 455.767 149.101 455.802 149.299C455.802 149.377 455.826 149.455 455.836 149.533L455.573 149.917C455.559 149.894 455.544 149.871 455.528 149.85L447.714 161.258C446.519 162.137 439.641 167.336 439.252 171.236C438.844 175.505 438.436 180.502 438.436 180.502L438.381 181.573C438.04 181.871 437.641 182.088 437.211 182.209C436.781 182.331 436.332 182.353 435.893 182.275C433.454 181.859 433.454 191.634 433.454 191.634C433.454 191.634 431.831 193.194 430.717 191.842C429.602 190.49 426.655 195.071 426.655 195.071L408.19 195.903L407.767 195.929L406.771 192.711C406.664 192.371 406.433 192.09 406.128 191.927C405.824 191.764 405.47 191.734 405.144 191.842C405.067 191.869 404.992 191.902 404.92 191.941L404.85 191.983L404.721 192.076L404.656 192.139C404.62 192.173 404.587 192.209 404.556 192.248L404.497 192.321L404.467 192.352C404.352 192.518 404.276 192.71 404.245 192.912C404.214 193.114 404.228 193.321 404.288 193.517L405.144 196.278C401.58 197.026 397.937 199.137 400.908 204.951L385.847 202.044L390.72 206.318L415.875 211.742C415.541 212.365 415.76 213.27 416.8 214.544C421.28 220.04 429.442 221.533 432.727 221.917C433.595 223.945 434.678 225.863 435.958 227.637L435.674 233.112C435.674 233.112 427.357 274.845 425.834 276.961C426.603 276.051 427.306 275.083 427.939 274.065C425.525 282.639 422.151 294.375 421.265 296.132C419.841 298.94 418.522 310.302 420.145 311.029C420.643 311.253 422.066 311.144 424.097 310.983V311.924L424.007 347.588C424.007 347.588 424.415 369.464 423.296 371.549C422.176 373.634 421.877 378.007 421.877 378.007C421.877 378.007 417.398 386.633 413.849 390.101C413.825 390.128 413.798 390.152 413.769 390.174L413.66 389.363C413.66 389.363 409.394 394.989 399.957 394.672C399.957 394.672 394.278 398.53 402.7 398.738C411.121 398.946 421.877 398.426 421.877 398.426C421.877 398.426 429.388 386.467 435.679 388.026V397.089H437.605V387.881C438.498 387.266 439.263 386.469 439.852 385.537C440.442 384.605 440.844 383.557 441.034 382.458C441.199 381.324 441.078 380.166 440.684 379.096C440.289 378.027 439.635 377.083 438.785 376.358C438.403 375.998 438.096 375.558 437.885 375.068C437.673 374.578 437.561 374.047 437.555 373.509L437.486 373.571C437.486 373.389 437.441 373.202 437.421 373.01C436.868 368.33 436.177 358.674 438.62 351.53C441.97 341.734 442.985 328.09 440.546 319.968C439.76 317.372 439.113 314.731 438.61 312.059C438.551 311.721 438.496 311.399 438.446 311.097C440.113 311.333 441.764 311.68 443.388 312.137C449.038 313.765 461.396 314.066 471.948 313.978C471.973 314.279 472.002 314.596 472.037 314.914C472.225 317.118 472.619 319.299 473.212 321.424C474.536 325.583 475.143 343.923 475.143 343.923C475.143 343.923 476.85 359.002 475.919 365.137C475.422 368.548 474.924 371.975 474.64 375.417V375.485C474.64 375.485 471.843 383.804 469.797 388.323C469.748 388.437 469.693 388.552 469.643 388.661C469.098 388.713 468.561 388.837 468.045 389.03C468.045 389.03 465.303 394.75 462.571 395.696C459.838 396.642 460.744 399.757 466.931 398.613C473.117 397.469 482.459 396.533 482.459 396.533L482.863 390.699L484.764 388.214L484.266 394.032L486.292 393.616L486.023 386.539L489.134 382.473C489.134 382.473 492.892 378.979 487.307 372.105V372.256C487.247 372.157 487.193 372.053 487.128 371.954V371.923C486.202 370.425 485.466 367.633 486.814 362.678C489.253 353.724 490.672 345.597 490.672 345.597C490.672 345.597 496.117 323.826 489.572 313.525H489.861C489.19 312.076 488.716 310.536 488.452 308.95C488.419 308.762 488.389 308.57 488.362 308.372C493.205 308.081 497.958 307.166 501.836 305.19C501.821 305.169 499.486 253.505 497.555 245.279ZM436.072 209.246V209.35L435.077 209.402L436.072 209.246ZM432.658 209.74C432.494 209.778 432.341 209.854 432.21 209.963C431.782 210.596 431.513 211.331 431.428 212.1L429.875 211.736C429.875 211.736 428.785 211.492 427.218 211.216L426.476 210.436C428.517 210.26 430.637 210 432.658 209.74V209.74Z" fill="url(#paint1_linear_747_584)"/>
<path d="M484.037 386.612L483.445 393.98L485.431 393.564L485.132 385.572L484.037 386.612Z" fill="#1D2366"/>
<path d="M438.73 351.629C436.336 358.752 437.013 368.366 437.55 373.036C437.749 374.762 437.933 375.812 437.933 375.812C437.933 375.812 434.355 384.329 434.056 384.652C433.758 384.974 423.524 391.5 423.524 391.5L416.372 395.862C416.372 395.862 409.115 392.54 412.595 391.396C413.305 391.098 413.946 390.642 414.471 390.059C417.955 386.602 422.33 378.007 422.33 378.007C422.33 378.007 422.629 373.644 423.724 371.569C424.819 369.495 424.42 347.692 424.42 347.692L424.505 312.153V307.52L438.118 307.624C438.203 309.196 438.4 310.761 438.705 312.303C439.193 314.966 439.827 317.598 440.601 320.186C443 328.292 442.005 341.869 438.73 351.629Z" fill="#FFB0B1"/>
<path opacity="0.1" d="M437.933 375.812C437.933 375.812 434.355 384.329 434.056 384.652C433.758 384.974 423.524 391.5 423.524 391.5L416.372 395.862C416.372 395.862 409.115 392.54 412.595 391.396C413.305 391.098 413.946 390.642 414.471 390.059L414.78 392.332L417.164 392.228L437.57 373.046C437.749 374.762 437.933 375.812 437.933 375.812Z" fill="black"/>
<path d="M437.685 373.53L417.164 392.841L414.78 392.945L414.282 389.306C414.282 389.306 410.111 394.911 400.843 394.599C400.843 394.599 395.279 398.441 403.526 398.649C411.773 398.857 422.305 398.337 422.305 398.337C422.305 398.337 429.661 386.378 435.818 387.938V396.97H437.709V387.855C438.589 387.236 439.339 386.439 439.916 385.509C440.492 384.58 440.883 383.538 441.064 382.447C441.228 381.323 441.112 380.174 440.728 379.11C440.343 378.047 439.703 377.104 438.869 376.374C438.497 376.009 438.2 375.569 437.996 375.08C437.792 374.59 437.686 374.063 437.685 373.53V373.53Z" fill="#1D2366"/>
<path d="M485.928 362.735C484.605 367.675 485.326 370.457 486.232 371.949V371.98C487.394 373.823 488.202 375.884 488.611 378.048L488.691 378.516L479.354 392.737L474.287 394.817C474.287 394.817 466.139 391.911 467.627 391.079C468.001 390.876 468.583 389.794 469.25 388.302C471.241 383.804 473.988 375.506 473.988 375.506V375.438C474.277 372.011 474.735 368.595 475.242 365.195C476.153 359.075 474.481 344.053 474.481 344.053C474.481 344.053 473.884 325.786 472.59 321.632C472.005 319.519 471.617 317.353 471.43 315.163C471.161 312.563 471.101 310.421 471.101 310.421C471.101 310.421 476.467 302.622 486.302 311.045C487.088 311.717 487.78 312.501 488.357 313.375C495.151 323.472 489.681 345.717 489.681 345.717C489.681 345.717 488.313 353.807 485.928 362.735Z" fill="#FFB0B1"/>
<path opacity="0.1" d="M488.706 378.516L479.369 392.737L474.302 394.817C474.302 394.817 466.154 391.911 467.642 391.079C468.016 390.876 468.598 389.794 469.265 388.302C472.714 388.271 474.501 391.703 474.501 391.703L478.871 390.975C478.871 390.975 484.634 379.14 485.929 378.417C487.223 377.695 486.128 373.015 486.128 373.015V371.824C486.162 371.866 486.192 371.912 486.232 371.954V371.985C487.394 373.828 488.202 375.889 488.611 378.053L488.706 378.516Z" fill="black"/>
<path d="M474.8 392.009C474.8 392.009 472.311 387.236 467.543 388.999C467.543 388.999 464.86 394.718 462.177 395.644C459.495 396.57 460.391 399.689 466.453 398.551C472.515 397.412 481.653 396.471 481.653 396.471L482.051 390.652L488.213 382.452C488.213 382.452 491.886 378.974 486.421 372.126V373.316C486.421 373.316 487.516 377.996 486.222 378.719C484.928 379.442 479.184 391.281 479.184 391.281L474.8 392.009Z" fill="#1D2366"/>
<path opacity="0.1" d="M438.133 307.613C438.218 309.186 438.415 310.75 438.72 312.293C433.116 311.435 427.914 311.861 424.505 312.142V307.509L438.133 307.613Z" fill="black"/>
<path opacity="0.1" d="M488.91 314.669C488.91 314.669 480.946 315.075 471.45 315.158C471.181 312.558 471.121 310.416 471.121 310.416C471.121 310.416 476.487 302.616 486.322 311.04C487.108 311.712 487.8 312.496 488.377 313.369C488.532 313.813 488.709 314.247 488.91 314.669V314.669Z" fill="black"/>
<path d="M488.91 313.733C488.91 313.733 454.03 315.496 443.398 312.381C432.767 309.267 422.23 311.965 420.643 311.243C419.055 310.52 420.344 299.2 421.738 296.397C423.131 293.595 430.776 265.251 430.776 265.251L438.133 225.183L445.882 222.952L446.43 222.791L459.933 218.901L469.827 216.047C469.827 216.047 489.502 296.294 487.815 302.211C487.202 304.477 487.103 306.86 487.526 309.173C487.784 310.753 488.25 312.287 488.91 313.733V313.733Z" fill="#1D2366"/>
<path d="M412.49 197.78C412.49 197.78 405.522 205.58 410.798 209.927C416.074 214.274 419.543 210.343 419.543 210.343L412.49 197.78Z" fill="#C7DAF5"/>
<path opacity="0.1" d="M412.49 197.78C412.49 197.78 405.522 205.58 410.798 209.927C416.074 214.274 419.543 210.343 419.543 210.343L412.49 197.78Z" fill="black"/>
<path d="M468.787 146.501C468.787 146.501 467.971 147.312 466.741 148.508C464.989 150.219 462.396 152.72 460.097 154.815C456.912 157.712 454.284 159.838 455.224 158.024C456.165 156.209 455.986 153.047 455.518 150.089C455.483 149.891 455.453 149.694 455.418 149.501C455.031 147.328 454.517 145.182 453.88 143.074C453.88 143.074 459.027 136.128 461.874 133.387C462.934 132.348 463.676 131.921 463.72 132.644C463.77 133.616 464.467 135.764 465.333 138.041C465.358 138.114 465.383 138.182 465.413 138.254C465.99 139.814 466.642 141.416 467.214 142.799C468.09 144.92 468.787 146.501 468.787 146.501Z" fill="#FFB0B1"/>
<path opacity="0.1" d="M465.413 138.254C464.929 140.972 463.755 143.504 462.015 145.586C460.274 147.668 458.03 149.223 455.518 150.089C455.122 147.715 454.575 145.372 453.88 143.074C453.88 143.074 463.571 129.997 463.72 132.644C463.755 133.647 464.512 135.873 465.413 138.254Z" fill="black"/>
<path opacity="0.1" d="M454.552 153.583L455.807 151.737C455.807 151.737 456.638 157.03 459.694 154.696C462.75 152.361 462.899 172.266 462.899 172.266L459.619 223.498L435.918 222.016L436.59 197.26L439.272 184.781L445.907 166.639L449.854 160.644L454.552 153.583Z" fill="black"/>
<path d="M462.899 172.583L459.913 218.907L459.599 223.815L446.385 222.988L445.887 222.957L435.933 222.333L436.605 197.572L439.287 185.093L445.922 166.951L449.869 160.956L454.567 153.869L455.821 152.028C455.821 152.028 456.653 157.322 459.709 154.987L459.773 154.94C462.76 152.964 462.899 172.583 462.899 172.583Z" fill="#1D2366"/>
<path d="M439.621 180.757C439.621 180.757 438.431 183.356 436.042 182.935C433.653 182.514 433.658 192.295 433.658 192.295C433.658 192.295 432.07 193.855 430.975 192.503C429.88 191.151 426.994 195.721 426.994 195.721L408.906 196.553C408.906 196.553 416.955 200.396 415.377 212.022C415.377 212.022 442.702 210.254 443.598 207.556C444.493 204.857 439.621 180.757 439.621 180.757Z" fill="white"/>
<path opacity="0.03" d="M439.621 180.757C439.621 180.757 438.431 183.356 436.042 182.935C433.653 182.514 433.658 192.295 433.658 192.295C433.658 192.295 432.07 193.855 430.975 192.503C429.88 191.151 426.994 195.721 426.994 195.721L408.906 196.553C408.906 196.553 416.955 200.396 415.377 212.022C415.377 212.022 442.702 210.254 443.598 207.556C444.493 204.857 439.621 180.757 439.621 180.757Z" fill="black"/>
<path d="M387.057 202.663L391.825 206.916L431.075 215.532L426.207 210.343L387.057 202.663Z" fill="white"/>
<path d="M454.627 155.221C453.975 156.261 452.108 161.585 450.551 166.234C449.252 170.108 448.167 173.513 448.167 173.513C448.167 173.513 445.633 190.745 444.339 193.86C443.045 196.974 443.747 209.121 443.747 209.121L438.924 239.118C438.924 239.118 436.739 254.587 433.364 263.827C430.035 272.921 426.327 277.185 426.212 277.32C427.705 275.209 435.843 233.643 435.843 233.643L438.531 181.219C438.531 181.219 438.924 176.238 439.322 171.98C439.72 167.721 447.783 161.908 447.783 161.908L455.558 150.359C456.339 151.451 455.816 153.354 454.627 155.221Z" fill="white"/>
<path d="M434.355 222.593C434.355 222.593 422.907 222.073 417.363 215.116C411.818 208.159 430.179 212.339 430.179 212.339L434.952 213.483L434.355 222.593Z" fill="#FFB0B1"/>
<path opacity="0.1" d="M487.815 302.216C487.202 304.482 487.103 306.866 487.526 309.178C475.038 310.104 461.68 306.579 461.68 306.579C459.191 308.97 452.636 312.496 452.636 312.496L449.062 266.219C446.778 259.979 445.882 227.289 445.882 227.289C445.882 227.289 446.086 225.578 446.38 223.014C446.38 222.952 446.38 222.884 446.405 222.822C447.296 215.662 449.062 202.221 449.929 200.406C451.123 197.91 446.255 191.27 446.255 191.27L448.47 171.538L448.739 169.156C453.408 166.977 456.986 160.02 456.986 160.02L459.734 154.992C462.72 152.99 462.874 172.609 462.874 172.609L459.888 218.933L469.783 216.078C469.783 216.078 489.502 296.299 487.815 302.216Z" fill="black"/>
<path d="M500.631 305.414C487.019 312.475 462.277 305.934 462.277 305.934C459.788 308.326 453.233 311.851 453.233 311.851L449.655 265.574C447.375 259.334 446.479 226.644 446.479 226.644C446.479 226.644 449.356 202.252 450.551 199.761C450.899 199.033 450.73 197.952 450.317 196.787C448.286 191.243 447.539 185.276 448.137 179.373L449.092 170.893L449.356 168.516C454.03 166.333 457.608 159.375 457.608 159.375L460.097 154.821L464.676 146.428L466.846 142.456L467.214 142.804L470.026 145.466C470.026 145.466 471.221 146.506 473.013 148.066C476.91 151.498 483.644 157.54 487.118 161.237C490.174 164.492 491.14 177.153 491.418 186.684C491.602 192.96 491.493 197.879 491.493 197.879C488.412 203.178 496.47 245.716 496.47 245.716C498.347 253.937 500.631 305.414 500.631 305.414Z" fill="white"/>
<path opacity="0.03" d="M474.501 159.271C474.501 159.271 465.159 177.85 466.244 184.911C467.329 191.972 470.415 199.964 468.926 201.831C468.415 202.538 467.754 203.112 466.995 203.508C466.236 203.904 465.4 204.111 464.551 204.114C463.058 204.218 459.077 207.124 459.077 207.436C459.077 207.748 455.398 207.748 452.108 209.204C448.819 210.66 443.961 211.487 443.961 211.487C443.961 211.487 434.504 211.175 433.623 212.111C432.742 213.047 431.836 218.647 433.723 223.113C435.609 227.58 437.705 230.913 439.287 231.521C440.87 232.129 450.914 228.614 459.062 227.783C467.209 226.951 476.054 220.207 476.054 220.207C476.054 220.207 485.794 216.567 487.501 210.447C489.208 204.327 485.416 170.69 485.416 170.69C485.416 170.69 482.549 155.013 474.501 159.271Z" fill="black"/>
<path opacity="0.03" d="M473.306 157.712C473.306 157.712 463.964 176.295 465.059 183.351C466.154 190.407 469.23 198.404 467.737 200.276C467.227 200.984 466.567 201.559 465.809 201.955C465.051 202.351 464.215 202.558 463.367 202.559C461.874 202.663 457.892 205.569 457.892 205.881C457.892 206.193 454.214 206.193 450.924 207.644C447.634 209.095 442.776 209.927 442.776 209.927C442.776 209.927 433.32 209.615 432.444 210.551C431.568 211.487 430.652 217.092 432.543 221.553C434.434 226.015 436.525 229.353 438.108 229.961C439.69 230.57 449.734 227.055 457.882 226.228C466.03 225.401 474.874 218.647 474.874 218.647C474.874 218.647 484.61 215.007 486.297 208.892C487.984 202.777 484.211 169.13 484.211 169.13C484.211 169.13 481.355 153.458 473.306 157.712Z" fill="black"/>
<path d="M474.207 158.336C474.207 158.336 464.865 176.919 465.96 183.975C467.055 191.031 470.131 199.028 468.643 200.895C468.133 201.605 467.473 202.181 466.714 202.578C465.954 202.975 465.117 203.182 464.268 203.183C462.775 203.287 458.793 206.193 458.793 206.5C458.793 206.807 455.12 206.812 451.825 208.268C448.53 209.724 443.677 210.551 443.677 210.551C443.677 210.551 434.22 210.239 433.34 211.175C432.459 212.111 431.553 217.716 433.439 222.177C435.325 226.639 437.421 229.977 439.004 230.585C440.586 231.194 450.63 227.679 458.778 226.847C466.926 226.015 475.77 219.271 475.77 219.271C475.77 219.271 485.51 215.631 487.218 209.511C488.925 203.391 485.157 169.754 485.157 169.754C485.157 169.754 482.25 154.103 474.207 158.336Z" fill="white"/>
<path opacity="0.1" d="M474.003 208.18C474.003 208.18 466.537 206.62 469.135 209.22C471.734 211.82 471.719 214.097 474.899 213.993C478.08 213.889 474.003 208.18 474.003 208.18Z" fill="black"/>
<path opacity="0.1" d="M486.62 264.118C486.62 264.118 483.246 266.505 489.701 272.006C496.157 277.507 486.62 264.118 486.62 264.118Z" fill="black"/>
<path opacity="0.1" d="M480.18 283.736C480.18 284.048 478.985 295.176 483.455 297.957C487.924 300.739 480.18 283.736 480.18 283.736Z" fill="black"/>
<path d="M409.215 196.527C405.612 196.657 397.827 197.806 401.864 205.673C405.432 212.636 411.43 207.982 414.804 204.452C413.981 201.16 411.981 198.324 409.215 196.527V196.527Z" fill="#FFB0B1"/>
<path d="M414.849 204.389L414.999 204.228L414.849 204.389Z" fill="#FFB0B1"/>
<path opacity="0.1" d="M473.013 148.383C469.19 151.113 465.985 153.417 465.358 153.895C463.646 155.221 460.381 163.005 458.275 166.977C456.598 170.175 451.148 170.997 449.092 171.2L449.356 168.823C454.03 166.639 457.608 159.682 457.608 159.682L466.846 142.763L470.026 145.784C470.026 145.784 471.221 146.823 473.013 148.383Z" fill="black"/>
<path d="M473.013 148.071C469.19 150.801 465.985 153.105 465.358 153.588C463.646 154.909 460.381 162.693 458.275 166.665C456.598 169.863 451.148 170.685 449.092 170.888L449.356 168.511C454.03 166.327 457.608 159.37 457.608 159.37L466.846 142.451L470.026 145.461C470.026 145.461 471.221 146.491 473.013 148.071Z" fill="#DCE7FF"/>
<path d="M465.656 134.823C465.659 137.944 464.752 140.992 463.058 143.563C461.058 146.603 458.08 148.793 454.666 149.736C451.252 150.678 447.627 150.311 444.45 148.701C441.273 147.09 438.754 144.343 437.349 140.958C435.945 137.574 435.749 133.775 436.796 130.252C437.843 126.728 440.065 123.714 443.057 121.756C446.05 119.797 449.615 119.024 453.107 119.577C456.598 120.13 459.784 121.972 462.087 124.769C464.389 127.567 465.656 131.133 465.656 134.823V134.823Z" fill="#FFB0B1"/>
<path opacity="0.1" d="M491.418 186.689C489.397 185.39 487.751 183.543 486.655 181.344C485.824 179.628 485.272 177.647 483.853 176.43C482.574 175.338 480.867 175.073 479.274 174.585C474.038 172.967 469.648 167.976 469.484 162.277C469.404 159.594 470.206 156.916 469.842 154.259C469.636 152.755 469.063 151.332 468.18 150.125C467.741 149.548 467.26 149.007 466.741 148.508C466.045 147.822 465.313 147.156 464.676 146.428C464.275 145.978 463.924 145.48 463.631 144.946C463.394 144.509 463.202 144.047 463.058 143.568C462.063 140.386 462.969 136.611 461.874 133.393L461.814 133.216C461.401 132.072 460.56 130.928 459.39 130.84C458.22 130.751 457.22 131.765 456.105 132.218C453.771 133.164 451.252 131.552 449.306 129.909C447.36 128.266 445.165 126.389 442.692 126.753C441.054 126.997 439.76 128.162 438.252 128.765C437.911 128.903 437.56 129.009 437.202 129.082C438.478 125.757 440.823 123 443.834 121.285C446.844 119.57 450.333 119.003 453.7 119.683C457.066 120.363 460.102 122.247 462.284 125.01C464.466 127.774 465.658 131.245 465.656 134.828C465.658 135.91 465.55 136.989 465.333 138.046C465.358 138.119 465.383 138.187 465.413 138.26C465.99 139.819 466.642 141.421 467.214 142.804L470.026 145.466C470.026 145.466 471.221 146.506 473.013 148.066C476.91 151.498 483.644 157.54 487.118 161.237C490.174 164.502 491.13 177.158 491.418 186.689Z" fill="black"/>
<path d="M438.078 119.265C438.79 117.752 439.143 116.057 439.994 114.622C441.243 112.542 443.423 111.211 445.663 110.405C451.511 108.299 463.87 105.242 467.563 110.405C468.289 111.445 468.892 112.599 469.897 113.317C470.664 113.863 471.589 114.097 472.43 114.507C474.785 115.662 476.288 118.178 477.089 120.747C477.89 123.316 478.129 126.072 478.717 128.718C479.468 132.114 480.787 135.332 482.101 138.53C483.649 142.305 485.292 146.22 488.278 148.888C492.354 152.528 493.255 157.68 497.038 161.674C501.517 166.416 501.373 174.241 499.063 180.455C498.76 181.271 498.416 182.124 498.536 182.992C498.655 183.861 499.272 184.651 499.855 185.343L502.304 188.229C496.51 189.69 489.955 186.528 487.257 180.98C486.426 179.264 485.874 177.288 484.45 176.067C483.176 174.975 481.464 174.715 479.876 174.226C474.64 172.604 470.25 167.607 470.086 161.908C470.007 159.23 470.808 156.552 470.445 153.9C470.242 152.386 469.668 150.953 468.777 149.741C467.408 147.874 465.343 146.621 464.228 144.541C462.342 141.062 463.775 136.544 462.416 132.81C461.998 131.666 461.162 130.522 459.992 130.434C458.823 130.346 457.822 131.36 456.703 131.812C454.373 132.758 451.855 131.152 449.909 129.503C447.963 127.855 445.768 125.983 443.289 126.352C441.651 126.592 440.362 127.756 438.854 128.365C437.739 128.812 435.48 129.212 434.504 128.229C432.444 126.248 437.217 121.116 438.078 119.265Z" fill="#591D4B"/>
<path opacity="0.1" d="M488.641 179.264C487.805 177.548 487.257 175.572 485.834 174.356C484.56 173.264 482.848 172.999 481.255 172.51C476.024 170.893 471.634 165.896 471.465 160.197C471.385 157.519 472.187 154.836 471.828 152.184C471.62 150.68 471.046 149.257 470.161 148.051C468.787 146.184 466.722 144.931 465.612 142.851C463.725 139.377 465.159 134.859 463.795 131.12C463.382 129.982 462.541 128.838 461.376 128.744C460.211 128.651 459.201 129.675 458.086 130.127C455.757 131.074 453.233 129.462 451.292 127.819C449.351 126.175 447.146 124.298 444.673 124.662C443.035 124.907 441.741 126.071 440.238 126.675C439.123 127.122 436.858 127.527 435.883 126.545C433.832 124.465 438.605 119.343 439.462 117.502C440.173 115.984 440.527 114.294 441.383 112.859C441.427 112.781 441.477 112.703 441.527 112.625C440.887 113.179 440.334 113.836 439.89 114.57C439.038 116.005 438.685 117.69 437.973 119.213C437.112 121.054 432.339 126.191 434.395 128.255C435.39 129.243 437.63 128.838 438.745 128.391C440.238 127.782 441.542 126.617 443.179 126.378C445.668 126.009 447.858 127.886 449.799 129.529C451.74 131.172 454.279 132.784 456.598 131.838C457.713 131.386 458.688 130.366 459.883 130.46C461.077 130.554 461.874 131.692 462.307 132.836C463.666 136.57 462.232 141.088 464.119 144.567C465.233 146.61 467.299 147.889 468.668 149.766C469.558 150.979 470.133 152.412 470.335 153.926C470.698 156.578 469.897 159.256 469.977 161.934C470.141 167.653 474.531 172.629 479.767 174.252C481.345 174.741 483.067 175.001 484.341 176.092C485.769 177.314 486.332 179.29 487.148 181.006C489.846 186.554 496.401 189.716 502.194 188.254L501.039 186.892C496.017 186.97 490.936 183.986 488.641 179.264Z" fill="black"/>
<path opacity="0.1" d="M454.328 155.533C453.676 156.573 451.81 161.897 450.252 166.546C448.794 165.953 447.47 162.173 447.47 162.173L455.244 150.619C456.04 151.763 455.518 153.661 454.328 155.533Z" fill="black"/>
<path d="M454.627 155.221C453.975 156.261 452.109 161.585 450.551 166.234C449.092 165.646 447.768 161.861 447.768 161.861L455.543 150.312C456.339 151.451 455.816 153.354 454.627 155.221Z" fill="#DCE7FF"/>
<path d="M409.424 208.341L405.114 194.141C405.063 193.974 405.044 193.799 405.058 193.625C405.072 193.451 405.118 193.282 405.195 193.127C405.272 192.972 405.377 192.834 405.505 192.721C405.633 192.609 405.781 192.524 405.94 192.471V192.471C406.261 192.367 406.608 192.399 406.906 192.561C407.205 192.722 407.43 193 407.533 193.335L411.843 207.519L411.415 210.488L409.424 208.341Z" fill="#BE8B87"/>
<path opacity="0.1" d="M405.522 192.893C405.843 192.786 406.192 192.818 406.492 192.979C406.791 193.141 407.017 193.42 407.12 193.756L411.43 207.941L411.106 210.166L411.42 210.509L411.848 207.54L407.513 193.355C407.41 193.021 407.185 192.743 406.887 192.581C406.588 192.42 406.241 192.388 405.92 192.492V192.492C405.65 192.584 405.417 192.767 405.258 193.012C405.343 192.965 405.431 192.925 405.522 192.893V192.893Z" fill="white"/>
<path d="M409.424 208.341L411.843 207.54L411.49 209.974L411.415 210.509L410.708 209.74L409.424 208.341Z" fill="#EFC8C4"/>
<path d="M410.708 209.74C410.75 209.684 410.803 209.638 410.862 209.604C410.897 209.581 410.938 209.569 410.979 209.569C411.021 209.569 411.061 209.581 411.096 209.604C411.13 209.647 411.159 209.694 411.181 209.745C411.214 209.802 411.259 209.851 411.312 209.888C411.366 209.925 411.426 209.949 411.49 209.958L411.415 210.478L410.708 209.74Z" fill="#727A9C"/>
<path d="M405.089 199.184C405.089 199.184 413.734 199.132 411.699 202.975C409.663 206.817 406.483 207.28 406.483 207.28L405.089 199.184Z" fill="#FFB0B1"/>
<path d="M351.32 26.7368H350.947C336.095 26.7368 322.96 34.9471 315.405 47.0623C307.849 34.9471 294.715 26.7368 279.863 26.7368H279.489C268.343 26.8477 257.69 31.5496 249.843 39.8206C241.997 48.0916 237.592 59.2633 237.586 70.9081C237.586 85.3684 243.649 105.886 255.469 122.77C277.991 154.94 315.405 183.086 315.405 183.086C315.405 183.086 352.818 154.945 375.335 122.77C387.161 105.886 393.218 85.3684 393.218 70.9081C393.212 59.2642 388.808 48.0932 380.963 39.8224C373.118 31.5516 362.465 26.8491 351.32 26.7368V26.7368ZM345.98 125.245C344.288 125.238 342.638 124.697 341.246 123.693C339.855 122.689 338.786 121.269 338.181 119.619H329.301C328.716 119.615 328.147 119.42 327.674 119.062C327.2 118.705 326.845 118.201 326.658 117.622L323.931 109.037L315.3 140.542C315.132 141.149 314.78 141.682 314.298 142.062C313.815 142.441 313.227 142.647 312.623 142.648H312.448C311.818 142.616 311.217 142.359 310.746 141.92C310.275 141.481 309.962 140.886 309.86 140.235L300.966 84.3492L294.466 117.419C294.317 118.047 293.971 118.605 293.483 119.004C292.994 119.403 292.393 119.619 291.773 119.619H279.265C278.891 119.635 278.516 119.572 278.165 119.434C277.814 119.295 277.493 119.084 277.222 118.813C276.952 118.542 276.736 118.216 276.589 117.855C276.441 117.495 276.366 117.107 276.366 116.715C276.366 116.323 276.441 115.935 276.589 115.574C276.736 115.213 276.952 114.888 277.222 114.616C277.493 114.345 277.814 114.134 278.165 113.995C278.516 113.857 278.891 113.794 279.265 113.811H289.583L298.791 69.3482C298.942 68.6908 299.307 68.1087 299.824 67.7014C300.34 67.294 300.976 67.0868 301.623 67.115C302.269 67.1433 302.886 67.4053 303.368 67.8562C303.851 68.3072 304.168 68.9191 304.266 69.5873L313.349 126.597L321.084 98.4092C321.245 97.8155 321.585 97.2922 322.055 96.9173C322.524 96.5425 323.096 96.3362 323.687 96.3293H323.742C324.327 96.3295 324.897 96.5226 325.37 96.8812C325.844 97.2397 326.197 97.7454 326.38 98.326L331.312 113.826H338.071C338.552 112.301 339.426 110.944 340.598 109.905C341.77 108.867 343.194 108.186 344.713 107.94C346.232 107.693 347.787 107.89 349.205 108.508C350.624 109.126 351.851 110.141 352.753 111.442C353.654 112.743 354.193 114.279 354.312 115.88C354.43 117.48 354.123 119.085 353.424 120.515C352.724 121.945 351.661 123.145 350.35 123.983C349.039 124.822 347.532 125.266 345.995 125.266L345.98 125.245Z" fill="white"/>
</g>
<defs>
<linearGradient id="paint0_linear_747_584" x1="177.352" y1="402.908" x2="177.352" y2="82.9505" gradientUnits="userSpaceOnUse">
<stop stop-color="#808080" stop-opacity="0.25"/>
<stop offset="0.54" stop-color="#808080" stop-opacity="0.12"/>
<stop offset="1" stop-color="#808080" stop-opacity="0.1"/>
</linearGradient>
<linearGradient id="paint1_linear_747_584" x1="111099" y1="241412" x2="111099" y2="77175.2" gradientUnits="userSpaceOnUse">
<stop stop-color="#808080" stop-opacity="0.25"/>
<stop offset="0.54" stop-color="#808080" stop-opacity="0.12"/>
<stop offset="1" stop-color="#808080" stop-opacity="0.1"/>
</linearGradient>
<clipPath id="clip0_747_584">
<rect width="550" height="407" fill="white"/>
</clipPath>
</defs>
</svg>
